<mxfile host="Electron" agent="Mozilla/5.0 (Windows NT 10.0; Win64; x64) AppleWebKit/537.36 (KHTML, like Gecko) draw.io/26.0.15 Chrome/132.0.6834.196 Electron/34.2.0 Safari/537.36" version="26.0.15">
  <diagram name="Page-1" id="zXzmwxxmwcQD2Nsxwwhn">
    <mxGraphModel dx="2164" dy="1014" grid="1" gridSize="10" guides="1" tooltips="1" connect="1" arrows="1" fold="1" page="1" pageScale="1" pageWidth="827" pageHeight="1169" math="0" shadow="0">
      <root>
        <mxCell id="0" />
        <mxCell id="1" parent="0" />
        <mxCell id="YNWrhUEAOcpYYzMa--yM-4" style="edgeStyle=orthogonalEdgeStyle;rounded=0;orthogonalLoop=1;jettySize=auto;html=1;exitX=0;exitY=0.5;exitDx=0;exitDy=0;entryX=0.5;entryY=0;entryDx=0;entryDy=0;" edge="1" parent="1" source="YNWrhUEAOcpYYzMa--yM-1" target="YNWrhUEAOcpYYzMa--yM-2">
          <mxGeometry relative="1" as="geometry" />
        </mxCell>
        <mxCell id="YNWrhUEAOcpYYzMa--yM-6" style="edgeStyle=orthogonalEdgeStyle;rounded=0;orthogonalLoop=1;jettySize=auto;html=1;exitX=0.5;exitY=1;exitDx=0;exitDy=0;entryX=0.5;entryY=0;entryDx=0;entryDy=0;" edge="1" parent="1" source="YNWrhUEAOcpYYzMa--yM-22" target="YNWrhUEAOcpYYzMa--yM-5">
          <mxGeometry relative="1" as="geometry" />
        </mxCell>
        <mxCell id="YNWrhUEAOcpYYzMa--yM-10" style="edgeStyle=orthogonalEdgeStyle;rounded=0;orthogonalLoop=1;jettySize=auto;html=1;exitX=1;exitY=0.5;exitDx=0;exitDy=0;entryX=1;entryY=0.5;entryDx=0;entryDy=0;" edge="1" parent="1" source="YNWrhUEAOcpYYzMa--yM-1" target="YNWrhUEAOcpYYzMa--yM-8">
          <mxGeometry relative="1" as="geometry" />
        </mxCell>
        <mxCell id="YNWrhUEAOcpYYzMa--yM-1" value="LLM / Orchestrator" style="rounded=1;whiteSpace=wrap;html=1;" vertex="1" parent="1">
          <mxGeometry x="299" y="140" width="190" height="100" as="geometry" />
        </mxCell>
        <mxCell id="YNWrhUEAOcpYYzMa--yM-29" style="edgeStyle=orthogonalEdgeStyle;rounded=0;orthogonalLoop=1;jettySize=auto;html=1;entryX=1;entryY=0.5;entryDx=0;entryDy=0;" edge="1" parent="1" source="YNWrhUEAOcpYYzMa--yM-2" target="YNWrhUEAOcpYYzMa--yM-28">
          <mxGeometry relative="1" as="geometry" />
        </mxCell>
        <mxCell id="YNWrhUEAOcpYYzMa--yM-2" value="MCP" style="ellipse;whiteSpace=wrap;html=1;aspect=fixed;" vertex="1" parent="1">
          <mxGeometry x="50" y="410" width="119" height="119" as="geometry" />
        </mxCell>
        <mxCell id="YNWrhUEAOcpYYzMa--yM-7" style="edgeStyle=orthogonalEdgeStyle;rounded=0;orthogonalLoop=1;jettySize=auto;html=1;exitX=0;exitY=0.5;exitDx=0;exitDy=0;entryX=1;entryY=0.5;entryDx=0;entryDy=0;" edge="1" parent="1" source="YNWrhUEAOcpYYzMa--yM-5" target="YNWrhUEAOcpYYzMa--yM-2">
          <mxGeometry relative="1" as="geometry" />
        </mxCell>
        <mxCell id="YNWrhUEAOcpYYzMa--yM-9" style="edgeStyle=orthogonalEdgeStyle;rounded=0;orthogonalLoop=1;jettySize=auto;html=1;exitX=0.5;exitY=1;exitDx=0;exitDy=0;entryX=0.5;entryY=0;entryDx=0;entryDy=0;" edge="1" parent="1" source="YNWrhUEAOcpYYzMa--yM-5" target="YNWrhUEAOcpYYzMa--yM-8">
          <mxGeometry relative="1" as="geometry" />
        </mxCell>
        <mxCell id="YNWrhUEAOcpYYzMa--yM-5" value="Agents spécialisés" style="rounded=1;whiteSpace=wrap;html=1;" vertex="1" parent="1">
          <mxGeometry x="316.5" y="420" width="155" height="100" as="geometry" />
        </mxCell>
        <mxCell id="YNWrhUEAOcpYYzMa--yM-17" style="edgeStyle=orthogonalEdgeStyle;rounded=0;orthogonalLoop=1;jettySize=auto;html=1;exitX=0.5;exitY=1;exitDx=0;exitDy=0;entryX=0.5;entryY=0;entryDx=0;entryDy=0;" edge="1" parent="1" source="YNWrhUEAOcpYYzMa--yM-8" target="YNWrhUEAOcpYYzMa--yM-16">
          <mxGeometry relative="1" as="geometry" />
        </mxCell>
        <mxCell id="YNWrhUEAOcpYYzMa--yM-8" value="Summarizer" style="rounded=1;whiteSpace=wrap;html=1;" vertex="1" parent="1">
          <mxGeometry x="286.5" y="620" width="215" height="100" as="geometry" />
        </mxCell>
        <mxCell id="YNWrhUEAOcpYYzMa--yM-11" value="VectorDB" style="shape=cylinder3;whiteSpace=wrap;html=1;boundedLbl=1;backgroundOutline=1;size=15;" vertex="1" parent="1">
          <mxGeometry x="710" y="125" width="90" height="130" as="geometry" />
        </mxCell>
        <mxCell id="YNWrhUEAOcpYYzMa--yM-12" style="edgeStyle=orthogonalEdgeStyle;rounded=0;orthogonalLoop=1;jettySize=auto;html=1;exitX=1;exitY=0.5;exitDx=0;exitDy=0;entryX=0;entryY=0.5;entryDx=0;entryDy=0;entryPerimeter=0;" edge="1" parent="1" source="YNWrhUEAOcpYYzMa--yM-1" target="YNWrhUEAOcpYYzMa--yM-11">
          <mxGeometry relative="1" as="geometry" />
        </mxCell>
        <mxCell id="YNWrhUEAOcpYYzMa--yM-24" style="edgeStyle=orthogonalEdgeStyle;rounded=0;orthogonalLoop=1;jettySize=auto;html=1;exitX=0.5;exitY=1;exitDx=0;exitDy=0;entryX=0.5;entryY=0;entryDx=0;entryDy=0;" edge="1" parent="1" source="YNWrhUEAOcpYYzMa--yM-14" target="YNWrhUEAOcpYYzMa--yM-1">
          <mxGeometry relative="1" as="geometry" />
        </mxCell>
        <mxCell id="YNWrhUEAOcpYYzMa--yM-14" value="_START_" style="shape=parallelogram;perimeter=parallelogramPerimeter;whiteSpace=wrap;html=1;fixedSize=1;" vertex="1" parent="1">
          <mxGeometry x="334" y="10" width="120" height="60" as="geometry" />
        </mxCell>
        <mxCell id="YNWrhUEAOcpYYzMa--yM-16" value="_END_" style="shape=parallelogram;perimeter=parallelogramPerimeter;whiteSpace=wrap;html=1;fixedSize=1;" vertex="1" parent="1">
          <mxGeometry x="334" y="800" width="120" height="60" as="geometry" />
        </mxCell>
        <mxCell id="YNWrhUEAOcpYYzMa--yM-18" value="VectorDB" style="shape=cylinder3;whiteSpace=wrap;html=1;boundedLbl=1;backgroundOutline=1;size=15;" vertex="1" parent="1">
          <mxGeometry x="689" y="570" width="80" height="120" as="geometry" />
        </mxCell>
        <mxCell id="YNWrhUEAOcpYYzMa--yM-19" style="edgeStyle=orthogonalEdgeStyle;rounded=0;orthogonalLoop=1;jettySize=auto;html=1;exitX=1;exitY=0.75;exitDx=0;exitDy=0;entryX=0;entryY=0;entryDx=0;entryDy=82.5;entryPerimeter=0;" edge="1" parent="1" source="YNWrhUEAOcpYYzMa--yM-8" target="YNWrhUEAOcpYYzMa--yM-18">
          <mxGeometry relative="1" as="geometry" />
        </mxCell>
        <mxCell id="YNWrhUEAOcpYYzMa--yM-20" value="global responses" style="edgeLabel;html=1;align=center;verticalAlign=middle;resizable=0;points=[];" vertex="1" connectable="0" parent="YNWrhUEAOcpYYzMa--yM-19">
          <mxGeometry x="0.287" y="4" relative="1" as="geometry">
            <mxPoint y="1" as="offset" />
          </mxGeometry>
        </mxCell>
        <mxCell id="YNWrhUEAOcpYYzMa--yM-21" value="specific data / user memories" style="text;html=1;align=center;verticalAlign=middle;resizable=0;points=[];autosize=1;" vertex="1" parent="1">
          <mxGeometry x="510" y="160" width="180" height="30" as="geometry" />
        </mxCell>
        <mxCell id="YNWrhUEAOcpYYzMa--yM-25" value="" style="edgeStyle=orthogonalEdgeStyle;rounded=0;orthogonalLoop=1;jettySize=auto;html=1;exitX=0.5;exitY=1;exitDx=0;exitDy=0;entryX=0.5;entryY=0;entryDx=0;entryDy=0;" edge="1" parent="1" source="YNWrhUEAOcpYYzMa--yM-1" target="YNWrhUEAOcpYYzMa--yM-22">
          <mxGeometry relative="1" as="geometry">
            <mxPoint x="394" y="240" as="sourcePoint" />
            <mxPoint x="394" y="420" as="targetPoint" />
          </mxGeometry>
        </mxCell>
        <mxCell id="YNWrhUEAOcpYYzMa--yM-22" value="Use Pre-made prompts" style="ellipse;whiteSpace=wrap;html=1;" vertex="1" parent="1">
          <mxGeometry x="334" y="290" width="120" height="80" as="geometry" />
        </mxCell>
        <mxCell id="YNWrhUEAOcpYYzMa--yM-26" value="Cloud / internet" style="ellipse;shape=cloud;whiteSpace=wrap;html=1;" vertex="1" parent="1">
          <mxGeometry x="-140" y="610" width="220" height="130" as="geometry" />
        </mxCell>
        <mxCell id="YNWrhUEAOcpYYzMa--yM-27" style="edgeStyle=orthogonalEdgeStyle;rounded=0;orthogonalLoop=1;jettySize=auto;html=1;exitX=0;exitY=1;exitDx=0;exitDy=0;entryX=0.625;entryY=0.2;entryDx=0;entryDy=0;entryPerimeter=0;" edge="1" parent="1" source="YNWrhUEAOcpYYzMa--yM-2" target="YNWrhUEAOcpYYzMa--yM-26">
          <mxGeometry relative="1" as="geometry" />
        </mxCell>
        <mxCell id="YNWrhUEAOcpYYzMa--yM-28" value="VMs / shell" style="ellipse;whiteSpace=wrap;html=1;" vertex="1" parent="1">
          <mxGeometry x="-230" y="480" width="120" height="80" as="geometry" />
        </mxCell>
      </root>
    </mxGraphModel>
  </diagram>
</mxfile>
